<svg width="98" height="36" viewBox="0 0 98 36" fill="none" xmlns="http://www.w3.org/2000/svg">
<path d="M45.5756 4.08495V16.9591H49.0486V4.08495H53.7824V1.16504H40.8419V4.08495H45.5756Z" fill="#064264"/>
<path d="M57.528 8.30996V3.86374H61.3327C62.129 3.86374 62.7263 4.04071 63.1245 4.39463C63.5226 4.73381 63.7217 5.28683 63.7217 6.05367C63.7217 6.85001 63.5226 7.42514 63.1245 7.77907C62.7263 8.133 62.129 8.30996 61.3327 8.30996H57.528ZM54.0551 1.16504V16.9591H57.528V10.7875H61.0009C61.871 10.7875 62.4977 10.9792 62.8811 11.3626C63.2646 11.746 63.5153 12.3506 63.6332 13.1765C63.7217 13.8106 63.7881 14.4742 63.8323 15.1673C63.8766 15.8604 63.9945 16.4577 64.1862 16.9591H67.6592C67.497 16.7379 67.3716 16.4724 67.2831 16.1627C67.2094 15.8383 67.1504 15.4991 67.1062 15.1452C67.0767 14.7913 67.0545 14.4447 67.0398 14.1055C67.025 13.7664 67.0103 13.4714 66.9956 13.2207C66.9661 12.8225 66.9071 12.4244 66.8186 12.0262C66.7449 11.628 66.6195 11.2667 66.4425 10.9423C66.2656 10.6031 66.037 10.3156 65.7568 10.0796C65.4766 9.82891 65.1227 9.64457 64.695 9.52659V9.48235C65.5798 9.12842 66.214 8.61228 66.5974 7.93391C66.9956 7.25555 67.1946 6.45184 67.1946 5.52278C67.1946 4.91815 67.084 4.35777 66.8628 3.84162C66.6564 3.31073 66.3467 2.8462 65.9338 2.44803C65.5356 2.04986 65.0489 1.74017 64.4738 1.51897C63.9134 1.28302 63.2793 1.16504 62.5715 1.16504H54.0551Z" fill="#064264"/>
<path d="M68.4705 1.16504V16.9591H71.9435V1.16504H68.4705Z" fill="#064264"/>
<path d="M77.7001 9.57083V12.2695H84.3584V9.57083H77.7001Z" fill="#064264"/>
<path d="M44.4475 29.4129H41.0852C41.0704 30.3862 41.2474 31.2268 41.6161 31.9347C41.9848 32.6425 42.4788 33.225 43.0981 33.6822C43.7323 34.1393 44.4549 34.4711 45.266 34.6776C46.0918 34.8988 46.9397 35.0094 47.8098 35.0094C48.8863 35.0094 49.8302 34.8841 50.6412 34.6334C51.4671 34.3827 52.1528 34.0361 52.6984 33.5937C53.2588 33.1365 53.6791 32.5983 53.9593 31.9789C54.2395 31.3595 54.3796 30.6885 54.3796 29.9659C54.3796 29.0811 54.1879 28.3585 53.8045 27.7981C53.4358 27.223 52.9934 26.7658 52.4772 26.4267C51.9611 26.0875 51.4376 25.8442 50.9067 25.6967C50.3905 25.5345 49.985 25.4239 49.6901 25.3649C48.702 25.1142 47.8983 24.9077 47.2789 24.7455C46.6743 24.5833 46.195 24.4211 45.8411 24.2588C45.5019 24.0966 45.2733 23.9197 45.1554 23.728C45.0374 23.5362 44.9784 23.2855 44.9784 22.9759C44.9784 22.6367 45.0521 22.3565 45.1996 22.1353C45.3471 21.9141 45.5314 21.7297 45.7526 21.5823C45.9886 21.4348 46.2466 21.3316 46.5268 21.2726C46.807 21.2136 47.0872 21.1841 47.3674 21.1841C47.7951 21.1841 48.1859 21.221 48.5398 21.2947C48.9085 21.3684 49.2329 21.4938 49.5131 21.6707C49.7933 21.8477 50.0145 22.091 50.1767 22.4007C50.3537 22.7104 50.4569 23.1012 50.4864 23.5731H53.8487C53.8487 22.6588 53.6718 21.8846 53.3178 21.2505C52.9786 20.6016 52.5141 20.0707 51.9242 19.6578C51.3344 19.2449 50.656 18.9499 49.8891 18.773C49.137 18.5813 48.3481 18.4854 47.5223 18.4854C46.8144 18.4854 46.1065 18.5813 45.3987 18.773C44.6908 18.9647 44.0567 19.2596 43.4963 19.6578C42.9359 20.056 42.4788 20.5574 42.1248 21.162C41.7857 21.7519 41.6161 22.4523 41.6161 23.2634C41.6161 23.986 41.7488 24.6054 42.0142 25.1215C42.2944 25.6229 42.6557 26.0432 43.0981 26.3824C43.5406 26.7216 44.042 27.0018 44.6023 27.223C45.1627 27.4295 45.7379 27.6064 46.3277 27.7539C46.9029 27.9161 47.4706 28.0636 48.031 28.1963C48.5914 28.329 49.0928 28.4839 49.5352 28.6608C49.9776 28.8378 50.3316 29.059 50.597 29.3244C50.8772 29.5899 51.0173 29.9364 51.0173 30.3641C51.0173 30.7623 50.9141 31.0941 50.7076 31.3595C50.5011 31.6102 50.2431 31.8093 49.9334 31.9568C49.6237 32.1043 49.2919 32.2075 48.938 32.2665C48.584 32.3107 48.2522 32.3328 47.9425 32.3328C47.4854 32.3328 47.043 32.2812 46.6153 32.178C46.1876 32.06 45.8116 31.8904 45.4872 31.6692C45.1775 31.4333 44.9268 31.131 44.7351 30.7623C44.5434 30.3936 44.4475 29.9438 44.4475 29.4129Z" fill="#064264"/>
<path d="M54.8975 18.8614V34.6555H58.3705V27.8424H64.7633V34.6555H68.2362V18.8614H64.7633V24.9225H58.3705V18.8614H54.8975Z" fill="#064264"/>
<path d="M72.5322 26.8248C72.5322 26.1317 72.606 25.4607 72.7535 24.8119C72.9157 24.163 73.1664 23.5879 73.5055 23.0865C73.8447 22.5703 74.2871 22.1648 74.8328 21.8698C75.3784 21.5601 76.042 21.4053 76.8236 21.4053C77.6052 21.4053 78.2688 21.5601 78.8145 21.8698C79.3601 22.1648 79.8025 22.5703 80.1417 23.0865C80.4809 23.5879 80.7242 24.163 80.8717 24.8119C81.0339 25.4607 81.115 26.1317 81.115 26.8248C81.115 27.4884 81.0339 28.1373 80.8717 28.7714C80.7242 29.3908 80.4809 29.9512 80.1417 30.4526C79.8025 30.954 79.3601 31.3595 78.8145 31.6692C78.2688 31.9642 77.6052 32.1116 76.8236 32.1116C76.042 32.1116 75.3784 31.9642 74.8328 31.6692C74.2871 31.3595 73.8447 30.954 73.5055 30.4526C73.1664 29.9512 72.9157 29.3908 72.7535 28.7714C72.606 28.1373 72.5322 27.4884 72.5322 26.8248ZM69.0593 26.8248C69.0593 27.9751 69.2363 29.0516 69.5902 30.0544C69.9441 31.0425 70.4529 31.9052 71.1165 32.6425C71.7801 33.3799 72.5912 33.9624 73.5498 34.39C74.5231 34.803 75.6144 35.0094 76.8236 35.0094C78.0476 35.0094 79.1389 34.803 80.0975 34.39C81.056 33.9624 81.8671 33.3799 82.5307 32.6425C83.1943 31.9052 83.7031 31.0425 84.057 30.0544C84.411 29.0516 84.5879 27.9751 84.5879 26.8248C84.5879 25.6451 84.411 24.5538 84.057 23.551C83.7031 22.5334 83.1943 21.6486 82.5307 20.8965C81.8671 20.1444 81.056 19.5546 80.0975 19.1269C79.1389 18.6992 78.0476 18.4854 76.8236 18.4854C75.6144 18.4854 74.5231 18.6992 73.5498 19.1269C72.5912 19.5546 71.7801 20.1444 71.1165 20.8965C70.4529 21.6486 69.9441 22.5334 69.5902 23.551C69.2363 24.5538 69.0593 25.6451 69.0593 26.8248Z" fill="#064264"/>
<path d="M88.8864 26.2939V21.5601H91.5851C91.9833 21.5601 92.3667 21.5896 92.7354 21.6486C93.104 21.7076 93.4285 21.8256 93.7087 22.0026C93.9889 22.1648 94.2101 22.4007 94.3723 22.7104C94.5492 23.0201 94.6377 23.4256 94.6377 23.927C94.6377 24.4284 94.5492 24.834 94.3723 25.1437C94.2101 25.4534 93.9889 25.6967 93.7087 25.8736C93.4285 26.0359 93.104 26.1465 92.7354 26.2055C92.3667 26.2644 91.9833 26.2939 91.5851 26.2939H88.8864ZM85.4135 18.8614V34.6555H88.8864V28.9926H92.5363C93.5243 28.9926 94.3649 28.8525 95.058 28.5723C95.7511 28.2774 96.3115 27.894 96.7392 27.4221C97.1816 26.9502 97.4986 26.4119 97.6903 25.8073C97.8968 25.1879 98 24.5612 98 23.927C98 23.2782 97.8968 22.6514 97.6903 22.0468C97.4986 21.4422 97.1816 20.9039 96.7392 20.432C96.3115 19.9601 95.7511 19.584 95.058 19.3039C94.3649 19.0089 93.5243 18.8614 92.5363 18.8614H85.4135Z" fill="#064264"/>
<rect width="35.3928" height="35.3928" fill="#064264"/>
<rect x="7.37347" y="6.63617" width="6.63615" height="13.2723" fill="white"/>
<rect x="14.747" y="14.0096" width="6.63615" height="13.2723" fill="white"/>
<rect x="28.0193" y="6.63617" width="6.63615" height="13.2723" transform="rotate(90 28.0193 6.63617)" fill="white"/>
</svg>
